<svg width="20" height="20" viewBox="0 0 20 20" fill="none" xmlns="http://www.w3.org/2000/svg">
<path d="M12.7637 10C12.7637 10.5933 12.5877 11.1734 12.2581 11.6667C11.9284 12.1601 11.4599 12.5446 10.9117 12.7716C10.3635 12.9987 9.76034 13.0581 9.1784 12.9424C8.59646 12.8266 8.06191 12.5409 7.64235 12.1213C7.22279 11.7018 6.93707 11.1672 6.82132 10.5853C6.70556 10.0033 6.76497 9.40013 6.99203 8.85195C7.2191 8.30377 7.60361 7.83524 8.09696 7.50559C8.59031 7.17595 9.17033 7 9.76367 7C10.5586 7.00247 11.3202 7.31934 11.8823 7.88141C12.4443 8.44349 12.7612 9.20511 12.7637 10ZM19.1387 5.875V14.125C19.1387 15.5174 18.5855 16.8527 17.601 17.8373C16.6164 18.8219 15.2811 19.375 13.8887 19.375H5.63867C4.24629 19.375 2.91093 18.8219 1.92636 17.8373C0.941795 16.8527 0.388672 15.5174 0.388672 14.125V5.875C0.388672 4.48261 0.941795 3.14726 1.92636 2.16269C2.91093 1.17812 4.24629 0.625 5.63867 0.625H13.8887C15.2811 0.625 16.6164 1.17812 17.601 2.16269C18.5855 3.14726 19.1387 4.48261 19.1387 5.875ZM14.2637 10C14.2637 9.10998 13.9998 8.23995 13.5053 7.49993C13.0108 6.75991 12.308 6.18314 11.4857 5.84254C10.6635 5.50195 9.75868 5.41283 8.88577 5.58647C8.01285 5.7601 7.21103 6.18868 6.58169 6.81802C5.95236 7.44736 5.52377 8.24918 5.35014 9.12209C5.17651 9.99501 5.26562 10.8998 5.60621 11.7221C5.94681 12.5443 6.52358 13.2471 7.26361 13.7416C8.00363 14.2361 8.87366 14.5 9.76367 14.5C10.9571 14.5 12.1017 14.0259 12.9457 13.182C13.7896 12.3381 14.2637 11.1935 14.2637 10ZM15.7637 5.125C15.7637 4.9025 15.6977 4.68499 15.5741 4.49998C15.4505 4.31498 15.2748 4.17078 15.0692 4.08564C14.8636 4.00049 14.6374 3.97821 14.4192 4.02162C14.201 4.06502 14.0005 4.17217 13.8432 4.3295C13.6858 4.48684 13.5787 4.68729 13.5353 4.90552C13.4919 5.12375 13.5142 5.34995 13.5993 5.55552C13.6845 5.76109 13.8287 5.93679 14.0137 6.0604C14.1987 6.18402 14.4162 6.25 14.6387 6.25C14.937 6.25 15.2232 6.13147 15.4342 5.9205C15.6451 5.70952 15.7637 5.42337 15.7637 5.125Z" fill="white"/>
</svg>
