<svg width="18" height="18" viewBox="0 0 18 18" fill="none" xmlns="http://www.w3.org/2000/svg">
<path d="M1.00101 0H17.001C17.2662 0 17.5206 0.105357 17.7081 0.292893C17.8957 0.48043 18.001 0.734784 18.001 1V17C18.001 17.2652 17.8957 17.5196 17.7081 17.7071C17.5206 17.8946 17.2662 18 17.001 18H1.00101C0.735791 18 0.481437 17.8946 0.2939 17.7071C0.106364 17.5196 0.00100708 17.2652 0.00100708 17V1C0.00100708 0.734784 0.106364 0.48043 0.2939 0.292893C0.481437 0.105357 0.735791 0 1.00101 0ZM2.00101 2V16H16.001V2H2.00101ZM4.50101 6C4.10318 6 3.72165 5.84196 3.44035 5.56066C3.15904 5.27936 3.00101 4.89782 3.00101 4.5C3.00101 4.10218 3.15904 3.72064 3.44035 3.43934C3.72165 3.15804 4.10318 3 4.50101 3C4.89883 3 5.28036 3.15804 5.56167 3.43934C5.84297 3.72064 6.00101 4.10218 6.00101 4.5C6.00101 4.89782 5.84297 5.27936 5.56167 5.56066C5.28036 5.84196 4.89883 6 4.50101 6ZM3.50101 7H5.50101V14.5H3.50101V7ZM9.00101 7.43C9.58501 6.865 10.267 6.5 11.001 6.5C13.072 6.5 14.501 8.179 14.501 10.25V14.5H12.501V10.25C12.501 9.78587 12.3166 9.34075 11.9884 9.01256C11.6603 8.68437 11.2151 8.5 10.751 8.5C10.2869 8.5 9.84176 8.68437 9.51357 9.01256C9.18538 9.34075 9.00101 9.78587 9.00101 10.25V14.5H7.00101V7H9.00101V7.43Z" fill="#686868"/>
</svg>
