<svg width="20" height="15" viewBox="0 0 20 15" fill="none" xmlns="http://www.w3.org/2000/svg">
<path d="M7.94296 10.5342L12.9718 7.62734L7.94296 4.7205V10.5342ZM19.144 2.94734C19.2699 3.40274 19.3571 4.01317 19.4153 4.78833C19.4831 5.56348 19.5122 6.23206 19.5122 6.81342L19.5703 7.62734C19.5703 9.74932 19.4153 11.3093 19.144 12.3073C18.9017 13.1794 18.3397 13.7414 17.4677 13.9836C17.0123 14.1096 16.179 14.1968 14.9 14.2549C13.6404 14.3227 12.4873 14.3518 11.4215 14.3518L9.88085 14.4099C5.82097 14.4099 3.29203 14.2549 2.29401 13.9836C1.42197 13.7414 0.859978 13.1794 0.617742 12.3073C0.491779 11.8519 0.404574 11.2415 0.346437 10.4663C0.278611 9.69119 0.249543 9.02261 0.249543 8.44125L0.191406 7.62734C0.191406 5.50535 0.346437 3.94535 0.617742 2.94734C0.859978 2.07529 1.42197 1.5133 2.29401 1.27106C2.74942 1.1451 3.58271 1.05789 4.86172 0.999757C6.12134 0.931931 7.27439 0.902863 8.34023 0.902863L9.88085 0.844727C13.9407 0.844727 16.4697 0.999758 17.4677 1.27106C18.3397 1.5133 18.9017 2.07529 19.144 2.94734Z" fill="white"/>
</svg>
