<svg width="20" height="20" viewBox="0 0 20 20" fill="none" xmlns="http://www.w3.org/2000/svg">
<path d="M5.765 17.225C6.355 16.965 7.015 16.916 7.633 17.086C8.403 17.296 9.198 17.402 10.001 17.4C14.586 17.4 18.001 14.113 18.001 9.7C18.001 5.287 14.586 2 10.001 2C5.416 2 2.001 5.287 2.001 9.7C2.001 11.97 2.897 13.972 4.467 15.376C4.75226 15.6287 4.98294 15.9369 5.14491 16.2818C5.30689 16.6268 5.39675 17.0011 5.409 17.382L5.765 17.225ZM10.001 0C15.634 0 20.001 4.127 20.001 9.7C20.001 15.273 15.634 19.4 10.001 19.4C9.02314 19.4025 8.04939 19.2734 7.106 19.016C6.9288 18.9673 6.74024 18.9811 6.572 19.055L4.587 19.931C4.46713 19.984 4.33608 20.0067 4.20537 19.9972C4.07467 19.9876 3.9483 19.9461 3.8374 19.8763C3.72649 19.8065 3.63444 19.7105 3.56933 19.5967C3.50422 19.483 3.46805 19.355 3.464 19.224L3.41 17.444C3.40627 17.3357 3.38049 17.2293 3.33424 17.1313C3.28799 17.0333 3.22223 16.9457 3.141 16.874C1.196 15.134 0.000999451 12.616 0.000999451 9.7C0.000999451 4.127 4.367 0 10.001 0ZM3.996 12.537L6.933 7.877C7.0435 7.70155 7.18918 7.55092 7.36084 7.43462C7.53249 7.31831 7.7264 7.23886 7.93031 7.20127C8.13422 7.16368 8.34371 7.16878 8.54555 7.21624C8.74739 7.2637 8.9372 7.35249 9.103 7.477L11.439 9.227C11.5431 9.3056 11.67 9.34813 11.8005 9.34813C11.931 9.34813 12.0579 9.3056 12.162 9.227L15.317 6.831C15.738 6.512 16.288 7.016 16.006 7.464L13.068 12.124C12.9575 12.2992 12.8119 12.4495 12.6404 12.5656C12.4689 12.6817 12.2752 12.7611 12.0716 12.7987C11.8679 12.8362 11.6587 12.8312 11.457 12.784C11.2554 12.7367 11.0657 12.6482 10.9 12.524L8.563 10.774C8.45887 10.6954 8.33196 10.6529 8.2015 10.6529C8.07104 10.6529 7.94413 10.6954 7.84 10.774L4.685 13.169C4.264 13.488 3.714 12.985 3.996 12.537Z" fill="#686868"/>
</svg>
