<svg width="40" height="40" viewBox="0 0 40 40" fill="none" xmlns="http://www.w3.org/2000/svg">
<path d="M20 1.89251e-08C23.9556 1.89251e-08 27.8224 1.17298 31.1114 3.37061C34.4004 5.56823 36.9638 8.69181 38.4776 12.3463C39.9913 16.0008 40.3874 20.0222 39.6157 23.9018C38.844 27.7814 36.9392 31.3451 34.1421 34.1421C31.3451 36.9392 27.7814 38.844 23.9018 39.6157C20.0222 40.3874 16.0008 39.9913 12.3463 38.4776C8.69181 36.9638 5.56823 34.4004 3.37061 31.1114C1.17298 27.8224 1.89252e-08 23.9556 1.89251e-08 20C-0.000114237 17.3735 0.517121 14.7728 1.52217 12.3462C2.52723 9.91963 4.00042 7.7148 5.85761 5.85761C7.7148 4.00041 9.91963 2.52723 12.3462 1.52218C14.7728 0.517123 17.3735 -0.000114237 20 1.89251e-08Z" fill="#030303"/>
<path d="M27.8938 24.2595H26.5705C26.4912 25.5963 25.9218 26.8569 24.9713 27.8002C24.0208 28.7435 22.7559 29.3032 21.4185 29.3724C20.8676 29.3734 20.3224 29.262 19.8161 29.0449C19.3098 28.8279 18.8532 28.5097 18.4742 28.1099C18.0952 27.7102 17.8018 27.2372 17.612 26.7201C17.4222 26.203 17.34 25.6525 17.3705 25.1025V14.8993C17.3362 14.3429 17.4179 13.7854 17.6106 13.2623C17.8032 12.7391 18.1025 12.2617 18.4894 11.8604C18.8763 11.459 19.3425 11.1425 19.8583 10.9309C20.374 10.7193 20.9282 10.6173 21.4855 10.6312C24.7297 10.6312 26.34 15.0681 26.5819 15.7398H27.8868V8.92693C27.8135 9.31338 27.6483 9.67654 27.4052 9.98576C27.162 10.295 26.8481 10.5412 26.4899 10.7037C26.1317 10.8662 25.7396 10.9402 25.3468 10.9194C24.954 10.8986 24.572 10.7836 24.2329 10.5842C22.4228 9.49468 20.3489 8.92152 18.2361 8.92693C15.2565 8.8844 12.3821 10.027 10.2448 12.1036C8.10761 14.1801 6.88265 17.0205 6.83936 20C6.88288 22.9794 8.10797 25.8195 10.2452 27.8957C12.3824 29.9719 15.2568 31.1142 18.2361 31.0714C27.0125 31.0714 27.8859 25.1138 27.8859 24.2603" fill="#F1F1F1"/>
<path d="M33.1569 28.5197C33.1727 29.0432 33.0319 29.5594 32.7524 30.0024C32.473 30.4454 32.0678 30.7949 31.5886 31.0061C31.1093 31.2174 30.578 31.2808 30.0625 31.1883C29.547 31.0957 29.0709 30.8515 28.695 30.4867C28.3192 30.122 28.0608 29.6533 27.9529 29.1408C27.845 28.6284 27.8925 28.0953 28.0894 27.61C28.2862 27.1247 28.6235 26.7092 29.0579 26.4166C29.4923 26.1241 30.0041 25.9679 30.5279 25.968C31.2146 25.9585 31.8772 26.2218 32.3701 26.7002C32.863 27.1785 33.1459 27.8329 33.1569 28.5197Z" fill="#CBD225"/>
</svg>
