<svg width="32" height="32" viewBox="0 0 32 32" fill="none" xmlns="http://www.w3.org/2000/svg">
<path d="M16.0355 0C7.00129 0 0 6.60292 0 15.5214C0 20.1862 1.91677 24.2174 5.03677 27.002C5.57548 27.4866 5.46452 27.7672 5.55613 30.759C5.56334 30.9685 5.62172 31.1732 5.72616 31.355C5.83061 31.5368 5.97795 31.6903 6.15533 31.8021C6.33272 31.9139 6.53476 31.9806 6.74384 31.9964C6.95292 32.0121 7.16269 31.9765 7.35484 31.8926C10.7684 30.3893 10.8123 30.2706 11.391 30.428C21.2806 33.1501 32 26.8207 32 15.5214C32 6.60292 25.0703 0 16.0355 0ZM25.6639 11.9445L20.9542 19.401C20.7763 19.6814 20.5425 19.922 20.2673 20.1078C19.9921 20.2936 19.6816 20.4205 19.355 20.4807C19.0285 20.5408 18.6931 20.5329 18.3697 20.4573C18.0464 20.3818 17.7422 20.2403 17.4761 20.0417L13.729 17.237C13.5615 17.1114 13.3578 17.0434 13.1484 17.0434C12.939 17.0434 12.7353 17.1114 12.5677 17.237L7.51161 21.072C6.83677 21.5837 5.9529 20.7753 6.40774 20.061L11.1174 12.6045C11.2952 12.3241 11.529 12.0834 11.8042 11.8975C12.0794 11.7117 12.39 11.5847 12.7165 11.5245C13.0431 11.4644 13.3786 11.4723 13.7019 11.5479C14.0252 11.6235 14.3294 11.7651 14.5955 11.9638L18.3413 14.7678C18.5088 14.8935 18.7125 14.9614 18.9219 14.9614C19.1313 14.9614 19.3351 14.8935 19.5026 14.7678L24.5613 10.9367C25.2348 10.4218 26.1187 11.2296 25.6639 11.9445Z" fill="black"/>
</svg>
