<svg width="448" height="70" viewBox="0 0 448 70" fill="none" xmlns="http://www.w3.org/2000/svg">
<path d="M19.6617 37.9006C19.6617 33.3256 17.0537 29.6047 12.0144 29.6047C7.06787 29.6047 4.45989 33.4596 3.89353 37.9006H19.6617ZM3.89353 40.1706C3.84786 45.248 6.65224 49.4577 12.0144 49.4577C13.6756 49.5688 15.3225 49.0879 16.6628 48.1001C18.0032 47.1124 18.9502 45.6817 19.3359 44.062H22.4646C21.0685 48.5061 18.1712 51.9012 12.0159 51.9012C4.26349 51.9028 0.914062 46.5574 0.914062 39.6225C0.914062 32.7836 5.10846 27.1611 12.0144 27.1611C18.6356 27.1611 22.6945 31.7361 22.6518 40.1706H3.89353Z" fill="#222220"/>
<path d="M31.5623 18.6396H28.7686V51.2768H31.5623V18.6396Z" fill="#222220"/>
<path d="M60.4832 29.3849C59.9275 27.4316 58.8511 23.7625 53.0718 23.7625C49.7087 23.7625 44.7622 25.9396 44.7622 35.1399C44.7622 40.9846 47.1418 46.2539 53.0718 46.2539C54.8502 46.3505 56.5999 45.7745 57.973 44.6403C59.3462 43.5061 60.2423 41.8967 60.4832 40.132H67.4789C66.0828 47.2054 61.3221 52.1413 52.9287 52.1413C44.0162 52.1413 37.6279 46.3011 37.6279 35.0546C37.6279 23.6833 44.3907 17.8857 53.0186 17.8857C63.0501 17.8857 67.109 24.5846 67.482 29.3956H60.4832V29.3849Z" fill="#222220"/>
<path d="M87.15 46.3746C90.9303 46.3746 96.2513 44.1153 96.2513 35.0033C96.2513 25.8913 90.9318 23.6259 87.15 23.6259C83.3682 23.6259 78.0563 25.8852 78.0563 35.0033C78.0563 44.1214 83.3727 46.3746 87.15 46.3746ZM87.15 17.874C91.5834 17.874 103.246 19.7299 103.246 35.0033C103.246 50.2767 91.5819 52.1326 87.15 52.1326C82.7181 52.1326 71.0605 50.2782 71.0605 35.0033C71.0605 19.7284 82.7196 17.874 87.15 17.874Z" fill="#222220"/>
<path d="M116.263 45.3802H132.918V51.2706H109.271V18.7324H116.263V45.3802Z" fill="#222220"/>
<path d="M151.174 46.3746C154.952 46.3746 160.265 44.1153 160.265 35.0033C160.265 25.8913 154.944 23.6259 151.174 23.6259C147.405 23.6259 142.073 25.8852 142.073 35.0033C142.073 44.1214 147.393 46.3746 151.174 46.3746ZM151.174 17.874C155.603 17.874 167.259 19.7299 167.259 35.0033C167.259 50.2767 155.603 52.1326 151.174 52.1326C146.745 52.1326 135.074 50.2782 135.074 35.0033C135.074 19.7284 146.738 17.874 151.174 17.874Z" fill="#222220"/>
<path d="M205.33 51.2707H198.802V24.0779H198.712L192.459 51.2707H185.608L179.488 24.0779H179.398V51.2707H172.863V18.7295H183.079L189.148 44.3831H189.24L195.209 18.7295H205.328L205.33 51.2707Z" fill="#222220"/>
<path d="M218.165 45.6512H226.746C230.149 45.6512 232.116 44.2048 232.116 40.9011C232.116 38.0404 229.593 36.9564 227.076 36.9564H218.165V45.6512ZM218.165 31.4694H226.376C229.116 31.4694 231.323 30.4295 231.323 27.8383C231.323 25.1694 229.363 24.3534 226.192 24.3534H218.165V31.4694ZM211.448 18.7324H227.726C235.948 18.7324 238.035 23.7063 238.035 27.071C238.166 28.4757 237.836 29.8849 237.097 31.0863C236.357 32.2876 235.247 33.2161 233.934 33.7318C235.561 34.2686 236.958 35.3407 237.898 36.7733C238.838 38.206 239.265 39.9148 239.11 41.6212C239.105 42.8768 238.847 44.1186 238.349 45.2716C237.852 46.4247 237.127 47.4653 236.217 48.3307C234.307 50.144 232.49 51.2782 225.635 51.2782H211.448V18.7324Z" fill="#222220"/>
<path d="M251.256 18.7324H244.261V51.2736H251.256V18.7324Z" fill="#222220"/>
<path d="M267.892 38.9445H276.418L272.266 26.0735H272.17L267.892 38.9445ZM263.687 51.2765H256.315L268.267 18.7383H276.336L288.135 51.2765H280.538L278.39 44.5776H266.023L263.687 51.2765Z" fill="#222220"/>
<path d="M313.292 18.7324H319.817V51.2736H312.821L299.156 28.0651H299.063V51.2736H292.531V18.7324H299.9L313.191 41.3928H313.292V18.7324Z" fill="#222220"/>
<path d="M341.61 46.3746C345.384 46.3746 350.704 44.1153 350.704 35.0033C350.704 25.8913 345.384 23.6259 341.61 23.6259C337.836 23.6259 332.513 25.8852 332.513 35.0033C332.513 44.1214 337.83 46.3746 341.61 46.3746ZM341.61 17.874C346.025 17.874 357.702 19.7299 357.702 35.0033C357.702 50.2767 346.036 52.1326 341.61 52.1326C337.184 52.1326 325.51 50.2782 325.51 35.0033C325.51 19.7284 337.173 17.874 341.61 17.874Z" fill="#222220"/>
<path d="M412.257 3.31189e-08C419.179 3.31189e-08 425.946 2.05271 431.702 5.89856C437.458 9.74441 441.944 15.2107 444.593 21.6061C447.242 28.0015 447.935 35.0388 446.584 41.8282C445.234 48.6175 441.9 54.8539 437.006 59.7487C432.111 64.6436 425.874 67.977 419.085 69.3275C412.296 70.678 405.258 69.9848 398.863 67.3358C392.467 64.6867 387.001 60.2007 383.155 54.4449C379.31 48.6892 377.257 41.9223 377.257 35C377.257 30.4037 378.162 25.8523 379.921 21.6058C381.679 17.3594 384.258 13.5009 387.508 10.2508C390.758 7.00072 394.616 4.42265 398.863 2.66381C403.109 0.904965 407.661 -0.000199916 412.257 3.31189e-08Z" fill="#222220"/>
<path d="M426.071 42.4541H423.755C423.616 44.7935 422.62 46.9995 420.956 48.6503C419.293 50.3011 417.079 51.2806 414.739 51.4016C413.775 51.4035 412.821 51.2085 411.935 50.8287C411.049 50.4488 410.25 49.892 409.586 49.1924C408.923 48.4928 408.41 47.6652 408.078 46.7602C407.746 45.8552 407.602 44.8919 407.655 43.9294V26.0739C407.595 25.1001 407.738 24.1245 408.075 23.209C408.412 22.2934 408.936 21.458 409.613 20.7556C410.29 20.0533 411.106 19.4994 412.009 19.1291C412.911 18.7588 413.881 18.5802 414.856 18.6046C420.534 18.6046 423.352 26.3692 423.775 27.5446H426.059V15.6221C425.93 16.2984 425.641 16.9339 425.216 17.4751C424.79 18.0162 424.241 18.4472 423.614 18.7315C422.987 19.0158 422.301 19.1453 421.614 19.1089C420.926 19.0725 420.258 18.8714 419.664 18.5224C416.497 16.6157 412.867 15.6127 409.17 15.6221C403.956 15.5477 398.925 17.5473 395.185 21.1813C391.445 24.8152 389.301 29.7858 389.226 35.0001C389.302 40.2139 391.446 45.184 395.186 48.8174C398.926 52.4508 403.956 54.4498 409.17 54.375C424.529 54.375 426.057 43.9492 426.057 42.4556" fill="#F1F1F1"/>
<path d="M435.281 49.9092C435.309 50.8253 435.062 51.7288 434.573 52.504C434.084 53.2791 433.375 53.8908 432.536 54.2605C431.698 54.6302 430.768 54.7412 429.866 54.5792C428.964 54.4173 428.13 53.9898 427.473 53.3515C426.815 52.7132 426.363 51.8931 426.174 50.9962C425.985 50.0994 426.068 49.1666 426.413 48.3173C426.757 47.468 427.347 46.7408 428.108 46.2289C428.868 45.717 429.764 45.4436 430.68 45.4438C431.882 45.4271 433.041 45.8879 433.904 46.725C434.767 47.5622 435.262 48.7073 435.281 49.9092Z" fill="#CBD225"/>
</svg>
