<svg width="24" height="24" viewBox="0 0 24 24" fill="none" xmlns="http://www.w3.org/2000/svg">
<mask id="mask0_826_8217" style="mask-type:alpha" maskUnits="userSpaceOnUse" x="0" y="0" width="24" height="24">
<rect width="24" height="24" fill="#D9D9D9"/>
</mask>
<g mask="url(#mask0_826_8217)">
<path d="M4 18.75C2.96667 18.75 2.08333 18.3833 1.35 17.65C0.616667 16.9167 0.25 16.0333 0.25 15C0.25 14.05 0.562667 13.225 1.188 12.525C1.81267 11.825 2.6 11.4167 3.55 11.3H3.9L2.75 10.35H0.25V9.15H4.275L6.975 10.775L11.05 9.25H14.675L12.725 6.75H10.25V5.25H13.425L15.425 7.8L18.575 6.4V8.775H16.2L18.4 11.6C18.65 11.4833 18.9083 11.3957 19.175 11.337C19.4417 11.279 19.7167 11.25 20 11.25C21.0333 11.25 21.9167 11.6167 22.65 12.35C23.3833 13.0833 23.75 13.9667 23.75 15C23.75 16.0333 23.3833 16.9167 22.65 17.65C21.9167 18.3833 21.0333 18.75 20 18.75C18.9667 18.75 18.0833 18.3833 17.35 17.65C16.6167 16.9167 16.25 16.0333 16.25 15C16.25 14.5333 16.3377 14.0917 16.513 13.675C16.6877 13.2583 16.925 12.875 17.225 12.525L16.375 11.45L12.875 16.75H10.1L7.75 14.7V15.15C7.7 16.15 7.31267 17 6.588 17.7C5.86267 18.4 5 18.75 4 18.75ZM4 17.25C4.63333 17.25 5.16667 17.0333 5.6 16.6C6.03333 16.1667 6.25 15.6333 6.25 15C6.25 14.3667 6.03333 13.8333 5.6 13.4C5.16667 12.9667 4.63333 12.75 4 12.75C3.36667 12.75 2.83333 12.9667 2.4 13.4C1.96667 13.8333 1.75 14.3667 1.75 15C1.75 15.6333 1.96667 16.1667 2.4 16.6C2.83333 17.0333 3.36667 17.25 4 17.25ZM20 17.25C20.6333 17.25 21.1667 17.0333 21.6 16.6C22.0333 16.1667 22.25 15.6333 22.25 15C22.25 14.3667 22.0333 13.8333 21.6 13.4C21.1667 12.9667 20.6333 12.75 20 12.75C19.3667 12.75 18.8333 12.9667 18.4 13.4C17.9667 13.8333 17.75 14.3667 17.75 15C17.75 15.6333 17.9667 16.1667 18.4 16.6C18.8333 17.0333 19.3667 17.25 20 17.25Z" fill="#222220"/>
</g>
</svg>
