<svg width="34" height="34" viewBox="0 0 34 34" fill="none" xmlns="http://www.w3.org/2000/svg">
<path d="M0.339941 33.6668L2.59327 25.3868C1.1085 22.8416 0.328434 19.9468 0.333274 17.0002C0.333274 7.79516 7.79494 0.333496 16.9999 0.333496C26.2049 0.333496 33.6666 7.79516 33.6666 17.0002C33.6666 26.2052 26.2049 33.6668 16.9999 33.6668C14.0546 33.6716 11.161 32.8921 8.61661 31.4085L0.339941 33.6668ZM10.9849 9.18016C10.7697 9.19353 10.5594 9.25021 10.3666 9.34683C10.1858 9.44921 10.0208 9.5772 9.87661 9.72683C9.67661 9.91516 9.56327 10.0785 9.44161 10.2368C8.82563 11.0385 8.49429 12.0225 8.49994 13.0335C8.50327 13.8502 8.71661 14.6452 9.04994 15.3885C9.73161 16.8918 10.8533 18.4835 12.3349 19.9585C12.6916 20.3135 13.0399 20.6702 13.4149 21.0018C15.2539 22.6209 17.4454 23.7886 19.8149 24.4118L20.7633 24.5568C21.0716 24.5735 21.3799 24.5502 21.6899 24.5352C22.1753 24.5101 22.6493 24.3787 23.0783 24.1502C23.2965 24.0377 23.5095 23.9154 23.7166 23.7835C23.7166 23.7835 23.7883 23.7368 23.9249 23.6335C24.1499 23.4668 24.2883 23.3485 24.4749 23.1535C24.6133 23.0102 24.7333 22.8418 24.8249 22.6502C24.9549 22.3785 25.0849 21.8602 25.1383 21.4285C25.1783 21.0985 25.1666 20.9185 25.1616 20.8068C25.1549 20.6285 25.0066 20.4435 24.8449 20.3652L23.8749 19.9302C23.8749 19.9302 22.4249 19.2985 21.5399 18.8952C21.4466 18.8545 21.3466 18.8313 21.2449 18.8268C21.1309 18.8151 21.0157 18.8279 20.907 18.8645C20.7984 18.901 20.6988 18.9603 20.6149 19.0385V19.0352C20.6066 19.0352 20.4949 19.1302 19.2899 20.5902C19.2208 20.6831 19.1255 20.7533 19.0163 20.7919C18.907 20.8305 18.7888 20.8357 18.6766 20.8068C18.568 20.7778 18.4616 20.741 18.3583 20.6968C18.1516 20.6102 18.0799 20.5768 17.9383 20.5152L17.9299 20.5118C16.9765 20.0955 16.0936 19.5332 15.3133 18.8452C15.1033 18.6618 14.9083 18.4618 14.7083 18.2685C14.0526 17.6406 13.4811 16.9302 13.0083 16.1552L12.9099 15.9968C12.8393 15.8904 12.7822 15.7757 12.7399 15.6552C12.6766 15.4102 12.8416 15.2135 12.8416 15.2135C12.8416 15.2135 13.2466 14.7702 13.4349 14.5302C13.5918 14.3307 13.7381 14.1232 13.8733 13.9085C14.0699 13.5918 14.1316 13.2668 14.0283 13.0152C13.5616 11.8752 13.0783 10.7402 12.5816 9.6135C12.4833 9.39016 12.1916 9.23016 11.9266 9.1985C11.8366 9.1885 11.7466 9.1785 11.6566 9.17183C11.4328 9.16071 11.2085 9.1646 10.9849 9.18016Z" fill="black"/>
</svg>
