<svg width="34" height="24" viewBox="0 0 34 24" fill="none" xmlns="http://www.w3.org/2000/svg">
<path d="M13.6668 17.0002L22.3168 12.0002L13.6668 7.00016V17.0002ZM32.9335 3.95016C33.1502 4.7335 33.3002 5.7835 33.4002 7.11683C33.5168 8.45016 33.5668 9.60016 33.5668 10.6002L33.6668 12.0002C33.6668 15.6502 33.4002 18.3335 32.9335 20.0502C32.5168 21.5502 31.5502 22.5168 30.0502 22.9335C29.2668 23.1502 27.8335 23.3002 25.6335 23.4002C23.4668 23.5168 21.4835 23.5668 19.6502 23.5668L17.0002 23.6668C10.0168 23.6668 5.66683 23.4002 3.95016 22.9335C2.45016 22.5168 1.4835 21.5502 1.06683 20.0502C0.850163 19.2668 0.700163 18.2168 0.600163 16.8835C0.483496 15.5502 0.433496 14.4002 0.433496 13.4002L0.333496 12.0002C0.333496 8.35016 0.600163 5.66683 1.06683 3.95016C1.4835 2.45016 2.45016 1.4835 3.95016 1.06683C4.7335 0.850163 6.16683 0.700163 8.36683 0.600163C10.5335 0.483496 12.5168 0.433496 14.3502 0.433496L17.0002 0.333496C23.9835 0.333496 28.3335 0.600163 30.0502 1.06683C31.5502 1.4835 32.5168 2.45016 32.9335 3.95016Z" fill="black"/>
</svg>
